<mxfile host="app.diagrams.net" agent="Mozilla/5.0 (Windows NT 10.0; Win64; x64) AppleWebKit/537.36 (KHTML, like Gecko) Chrome/108.0.0.0 Safari/537.36" version="26.0.3">
  <diagram name="Page-1" id="90a13364-a465-7bf4-72fc-28e22215d7a0">
    <mxGraphModel dx="2868" dy="1478" grid="1" gridSize="10" guides="1" tooltips="1" connect="1" arrows="1" fold="1" page="1" pageScale="1.5" pageWidth="1169" pageHeight="827" background="none" math="0" shadow="0">
      <root>
        <mxCell id="0" style=";html=1;" />
        <mxCell id="1" style=";html=1;" parent="0" />
        <mxCell id="F4LApp7SRapzV72RJLrX-8" value="" style="group" parent="1" vertex="1" connectable="0">
          <mxGeometry x="720" y="700" width="180" height="280" as="geometry" />
        </mxCell>
        <mxCell id="3a17f1ce550125da-2" value="Register&lt;div&gt;File&lt;/div&gt;" style="whiteSpace=wrap;html=1;shadow=1;fontSize=18;fillColor=#f5f5f5;strokeColor=#666666;" parent="F4LApp7SRapzV72RJLrX-8" vertex="1">
          <mxGeometry width="170" height="280" as="geometry" />
        </mxCell>
        <mxCell id="JqTOLJbfiFGYhZ1s0W8t-5" value="Read&amp;nbsp;&lt;div&gt;Address 1&lt;/div&gt;" style="text;html=1;align=left;verticalAlign=middle;whiteSpace=wrap;rounded=0;" parent="F4LApp7SRapzV72RJLrX-8" vertex="1">
          <mxGeometry y="50" width="60" height="20" as="geometry" />
        </mxCell>
        <mxCell id="JqTOLJbfiFGYhZ1s0W8t-8" value="Read&amp;nbsp;&lt;div&gt;Address 2&lt;/div&gt;" style="text;html=1;align=left;verticalAlign=middle;whiteSpace=wrap;rounded=0;" parent="F4LApp7SRapzV72RJLrX-8" vertex="1">
          <mxGeometry y="90" width="60" height="20" as="geometry" />
        </mxCell>
        <mxCell id="JqTOLJbfiFGYhZ1s0W8t-10" value="Write&lt;div&gt;Address&lt;/div&gt;" style="text;html=1;align=left;verticalAlign=middle;whiteSpace=wrap;rounded=0;" parent="F4LApp7SRapzV72RJLrX-8" vertex="1">
          <mxGeometry y="150" width="60" height="40" as="geometry" />
        </mxCell>
        <mxCell id="JqTOLJbfiFGYhZ1s0W8t-13" value="Write&lt;div&gt;Data&lt;/div&gt;" style="text;html=1;align=center;verticalAlign=middle;whiteSpace=wrap;rounded=0;" parent="F4LApp7SRapzV72RJLrX-8" vertex="1">
          <mxGeometry y="240" width="60" height="40" as="geometry" />
        </mxCell>
        <mxCell id="JqTOLJbfiFGYhZ1s0W8t-16" value="RD1" style="text;html=1;align=right;verticalAlign=middle;whiteSpace=wrap;rounded=0;" parent="F4LApp7SRapzV72RJLrX-8" vertex="1">
          <mxGeometry x="140" y="50" width="30" height="20" as="geometry" />
        </mxCell>
        <mxCell id="JqTOLJbfiFGYhZ1s0W8t-17" value="RD2" style="text;html=1;align=right;verticalAlign=middle;whiteSpace=wrap;rounded=0;" parent="F4LApp7SRapzV72RJLrX-8" vertex="1">
          <mxGeometry x="140" y="80" width="30" height="20" as="geometry" />
        </mxCell>
        <mxCell id="JqTOLJbfiFGYhZ1s0W8t-6" style="edgeStyle=orthogonalEdgeStyle;rounded=0;orthogonalLoop=1;jettySize=auto;html=1;exitX=0.5;exitY=1;exitDx=0;exitDy=0;" parent="F4LApp7SRapzV72RJLrX-8" source="JqTOLJbfiFGYhZ1s0W8t-5" target="JqTOLJbfiFGYhZ1s0W8t-5" edge="1">
          <mxGeometry relative="1" as="geometry" />
        </mxCell>
        <mxCell id="zFS1pn2A8cmfrVWvFFyQ-1" value="RegWrite" style="text;html=1;align=center;verticalAlign=middle;whiteSpace=wrap;rounded=0;" vertex="1" parent="F4LApp7SRapzV72RJLrX-8">
          <mxGeometry x="70" width="50" height="20" as="geometry" />
        </mxCell>
        <mxCell id="F4LApp7SRapzV72RJLrX-17" value="" style="group" parent="1" vertex="1" connectable="0">
          <mxGeometry x="390" y="500" width="280" height="370" as="geometry" />
        </mxCell>
        <mxCell id="-hvyRLRQOOJ3VwnVLbOB-1" value="Instruction&lt;div&gt;Decoder&lt;/div&gt;" style="whiteSpace=wrap;html=1;shadow=1;fontSize=18;fillColor=#f5f5f5;strokeColor=#666666;" parent="F4LApp7SRapzV72RJLrX-17" vertex="1">
          <mxGeometry x="10" width="150" height="260" as="geometry" />
        </mxCell>
        <mxCell id="-hvyRLRQOOJ3VwnVLbOB-2" value="Instr." style="text;html=1;align=center;verticalAlign=middle;whiteSpace=wrap;rounded=0;" parent="F4LApp7SRapzV72RJLrX-17" vertex="1">
          <mxGeometry x="10" y="130" width="30" height="20" as="geometry" />
        </mxCell>
        <mxCell id="-hvyRLRQOOJ3VwnVLbOB-6" value="opcode" style="text;html=1;align=right;verticalAlign=middle;whiteSpace=wrap;rounded=0;" parent="F4LApp7SRapzV72RJLrX-17" vertex="1">
          <mxGeometry x="110" y="10" width="50" height="20" as="geometry" />
        </mxCell>
        <mxCell id="-hvyRLRQOOJ3VwnVLbOB-7" value="&lt;div style=&quot;&quot;&gt;&lt;span style=&quot;background-color: transparent;&quot;&gt;rs1&lt;/span&gt;&lt;/div&gt;" style="text;html=1;align=right;verticalAlign=middle;whiteSpace=wrap;rounded=0;" parent="F4LApp7SRapzV72RJLrX-17" vertex="1">
          <mxGeometry x="140" y="130" width="20" height="20" as="geometry" />
        </mxCell>
        <mxCell id="-hvyRLRQOOJ3VwnVLbOB-8" value="rs2" style="text;html=1;align=right;verticalAlign=middle;whiteSpace=wrap;rounded=0;" parent="F4LApp7SRapzV72RJLrX-17" vertex="1">
          <mxGeometry x="140" y="160" width="20" height="20" as="geometry" />
        </mxCell>
        <mxCell id="-hvyRLRQOOJ3VwnVLbOB-9" value="rd" style="text;html=1;align=right;verticalAlign=middle;whiteSpace=wrap;rounded=0;" parent="F4LApp7SRapzV72RJLrX-17" vertex="1">
          <mxGeometry x="140" y="190" width="20" height="20" as="geometry" />
        </mxCell>
        <mxCell id="-hvyRLRQOOJ3VwnVLbOB-10" value="imm" style="text;html=1;align=right;verticalAlign=middle;whiteSpace=wrap;rounded=0;" parent="F4LApp7SRapzV72RJLrX-17" vertex="1">
          <mxGeometry x="130" y="230" width="30" height="20" as="geometry" />
        </mxCell>
        <mxCell id="-hvyRLRQOOJ3VwnVLbOB-11" value="funct3" style="text;html=1;align=right;verticalAlign=middle;whiteSpace=wrap;rounded=0;" parent="F4LApp7SRapzV72RJLrX-17" vertex="1">
          <mxGeometry x="120" y="60" width="40" height="20" as="geometry" />
        </mxCell>
        <mxCell id="-hvyRLRQOOJ3VwnVLbOB-12" value="funct7" style="text;html=1;align=right;verticalAlign=middle;whiteSpace=wrap;rounded=0;" parent="F4LApp7SRapzV72RJLrX-17" vertex="1">
          <mxGeometry x="120" y="80" width="40" height="20" as="geometry" />
        </mxCell>
        <mxCell id="-hvyRLRQOOJ3VwnVLbOB-21" value="(Destination&lt;div&gt;Register)&lt;/div&gt;" style="text;html=1;align=center;verticalAlign=middle;whiteSpace=wrap;rounded=0;" parent="F4LApp7SRapzV72RJLrX-17" vertex="1">
          <mxGeometry x="70" y="180" width="60" height="30" as="geometry" />
        </mxCell>
        <mxCell id="F4LApp7SRapzV72RJLrX-21" value="" style="group" parent="1" vertex="1" connectable="0">
          <mxGeometry y="480" width="190" height="270" as="geometry" />
        </mxCell>
        <mxCell id="3a17f1ce550125da-8" value="Program&lt;div&gt;Counter&lt;/div&gt;" style="whiteSpace=wrap;html=1;shadow=1;fontSize=18;fillColor=#f5f5f5;strokeColor=#666666;" parent="F4LApp7SRapzV72RJLrX-21" vertex="1">
          <mxGeometry x="80" y="120" width="80" height="150" as="geometry" />
        </mxCell>
        <mxCell id="0RyyWnerKbfPe0gcl8zv-7" value="NextPC" style="text;html=1;align=left;verticalAlign=middle;whiteSpace=wrap;rounded=0;" parent="F4LApp7SRapzV72RJLrX-21" vertex="1">
          <mxGeometry x="80" y="150" width="50" height="20" as="geometry" />
        </mxCell>
        <mxCell id="0RyyWnerKbfPe0gcl8zv-8" value="PC" style="text;html=1;align=right;verticalAlign=middle;whiteSpace=wrap;rounded=0;" parent="F4LApp7SRapzV72RJLrX-21" vertex="1">
          <mxGeometry x="140" y="150" width="20" height="20" as="geometry" />
        </mxCell>
        <mxCell id="zFS1pn2A8cmfrVWvFFyQ-53" value="" style="group" vertex="1" connectable="0" parent="F4LApp7SRapzV72RJLrX-21">
          <mxGeometry x="90" y="40" width="20" height="90" as="geometry" />
        </mxCell>
        <mxCell id="0RyyWnerKbfPe0gcl8zv-11" value="" style="triangle;whiteSpace=wrap;html=1;rotation=90;" parent="zFS1pn2A8cmfrVWvFFyQ-53" vertex="1">
          <mxGeometry x="5" y="75" width="10" height="20" as="geometry" />
        </mxCell>
        <mxCell id="zFS1pn2A8cmfrVWvFFyQ-21" value="" style="edgeStyle=none;orthogonalLoop=1;jettySize=auto;html=1;rounded=0;" edge="1" parent="zFS1pn2A8cmfrVWvFFyQ-53">
          <mxGeometry width="100" relative="1" as="geometry">
            <mxPoint x="10" as="sourcePoint" />
            <mxPoint x="10" y="80" as="targetPoint" />
            <Array as="points" />
          </mxGeometry>
        </mxCell>
        <mxCell id="zFS1pn2A8cmfrVWvFFyQ-25" value="CLK" style="edgeLabel;html=1;align=center;verticalAlign=middle;resizable=0;points=[];" vertex="1" connectable="0" parent="zFS1pn2A8cmfrVWvFFyQ-21">
          <mxGeometry x="-0.0019" relative="1" as="geometry">
            <mxPoint as="offset" />
          </mxGeometry>
        </mxCell>
        <mxCell id="zFS1pn2A8cmfrVWvFFyQ-64" value="" style="group" vertex="1" connectable="0" parent="F4LApp7SRapzV72RJLrX-21">
          <mxGeometry x="119.9" y="40" width="30.099999999999994" height="80" as="geometry" />
        </mxCell>
        <mxCell id="0RyyWnerKbfPe0gcl8zv-13" value="" style="edgeStyle=elbowEdgeStyle;rounded=0;html=1;startArrow=none;startFill=0;jettySize=auto;orthogonalLoop=1;fontSize=18;elbow=vertical;entryX=0.75;entryY=0;entryDx=0;entryDy=0;" parent="zFS1pn2A8cmfrVWvFFyQ-64" edge="1">
          <mxGeometry relative="1" as="geometry">
            <Array as="points">
              <mxPoint y="40" />
            </Array>
            <mxPoint as="sourcePoint" />
            <mxPoint x="5.684341886080802e-14" y="80" as="targetPoint" />
          </mxGeometry>
        </mxCell>
        <mxCell id="zFS1pn2A8cmfrVWvFFyQ-26" value="RST" style="text;html=1;align=center;verticalAlign=middle;resizable=1;points=[];autosize=1;strokeColor=none;fillColor=none;movable=1;rotatable=1;deletable=1;editable=1;locked=0;connectable=1;" vertex="1" parent="zFS1pn2A8cmfrVWvFFyQ-64">
          <mxGeometry x="0.09999999999999432" y="50" width="30" height="20" as="geometry" />
        </mxCell>
        <mxCell id="F4LApp7SRapzV72RJLrX-22" value="" style="group" parent="1" vertex="1" connectable="0">
          <mxGeometry x="200" y="600" width="140" height="150" as="geometry" />
        </mxCell>
        <mxCell id="0RyyWnerKbfPe0gcl8zv-1" value="Instruction&lt;div&gt;Memory&lt;/div&gt;" style="whiteSpace=wrap;html=1;shadow=1;fontSize=18;fillColor=#f5f5f5;strokeColor=#666666;" parent="F4LApp7SRapzV72RJLrX-22" vertex="1">
          <mxGeometry x="10" width="120" height="150" as="geometry" />
        </mxCell>
        <mxCell id="0RyyWnerKbfPe0gcl8zv-3" value="address" style="text;html=1;align=left;verticalAlign=middle;whiteSpace=wrap;rounded=0;" parent="F4LApp7SRapzV72RJLrX-22" vertex="1">
          <mxGeometry x="10" y="30" width="50" height="20" as="geometry" />
        </mxCell>
        <mxCell id="0RyyWnerKbfPe0gcl8zv-4" value="I_RD" style="text;html=1;align=center;verticalAlign=middle;whiteSpace=wrap;rounded=0;" parent="F4LApp7SRapzV72RJLrX-22" vertex="1">
          <mxGeometry x="100" y="30" width="30" height="20" as="geometry" />
        </mxCell>
        <mxCell id="F4LApp7SRapzV72RJLrX-28" value="" style="group" parent="1" vertex="1" connectable="0">
          <mxGeometry x="690" y="190" width="180" height="520" as="geometry" />
        </mxCell>
        <mxCell id="-hvyRLRQOOJ3VwnVLbOB-47" value="Control&lt;div&gt;Unit&lt;/div&gt;" style="whiteSpace=wrap;html=1;shadow=1;fontSize=18;fillColor=#f5f5f5;strokeColor=#666666;" parent="F4LApp7SRapzV72RJLrX-28" vertex="1">
          <mxGeometry width="150" height="260" as="geometry" />
        </mxCell>
        <mxCell id="-hvyRLRQOOJ3VwnVLbOB-48" value="RegWrite" style="text;html=1;align=center;verticalAlign=middle;whiteSpace=wrap;rounded=0;" parent="F4LApp7SRapzV72RJLrX-28" vertex="1">
          <mxGeometry x="90" y="240" width="50" height="20" as="geometry" />
        </mxCell>
        <mxCell id="-hvyRLRQOOJ3VwnVLbOB-49" value="opcode" style="text;html=1;align=left;verticalAlign=middle;whiteSpace=wrap;rounded=0;" parent="F4LApp7SRapzV72RJLrX-28" vertex="1">
          <mxGeometry y="40" width="50" height="20" as="geometry" />
        </mxCell>
        <mxCell id="-hvyRLRQOOJ3VwnVLbOB-59" value="ALUop" style="text;html=1;align=center;verticalAlign=middle;whiteSpace=wrap;rounded=0;" parent="F4LApp7SRapzV72RJLrX-28" vertex="1">
          <mxGeometry x="110" y="70" width="40" height="20" as="geometry" />
        </mxCell>
        <mxCell id="F4LApp7SRapzV72RJLrX-56" value="MemRead" style="text;html=1;align=center;verticalAlign=middle;whiteSpace=wrap;rounded=0;" parent="F4LApp7SRapzV72RJLrX-28" vertex="1">
          <mxGeometry x="90" y="180" width="60" height="30" as="geometry" />
        </mxCell>
        <mxCell id="F4LApp7SRapzV72RJLrX-73" value="MemWrite" style="text;html=1;align=center;verticalAlign=middle;whiteSpace=wrap;rounded=0;" parent="F4LApp7SRapzV72RJLrX-28" vertex="1">
          <mxGeometry x="90" y="160" width="60" height="30" as="geometry" />
        </mxCell>
        <mxCell id="laC3dYbV331lfGwgBf-x-33" value="ALUsrcB" style="text;html=1;align=center;verticalAlign=middle;whiteSpace=wrap;rounded=0;" parent="F4LApp7SRapzV72RJLrX-28" vertex="1">
          <mxGeometry x="100" y="40" width="50" height="20" as="geometry" />
        </mxCell>
        <mxCell id="laC3dYbV331lfGwgBf-x-37" value="Mem2Reg" style="text;html=1;align=center;verticalAlign=middle;whiteSpace=wrap;rounded=0;" parent="F4LApp7SRapzV72RJLrX-28" vertex="1">
          <mxGeometry x="90" y="200" width="60" height="20" as="geometry" />
        </mxCell>
        <mxCell id="laC3dYbV331lfGwgBf-x-40" value="Branch" style="text;html=1;align=center;verticalAlign=middle;whiteSpace=wrap;rounded=0;" parent="F4LApp7SRapzV72RJLrX-28" vertex="1">
          <mxGeometry x="110" y="100" width="40" height="20" as="geometry" />
        </mxCell>
        <mxCell id="s6hKSkpy---ewfnxM8lV-1" value="Jump" style="text;html=1;align=center;verticalAlign=middle;whiteSpace=wrap;rounded=0;" parent="F4LApp7SRapzV72RJLrX-28" vertex="1">
          <mxGeometry x="110" y="120" width="40" height="20" as="geometry" />
        </mxCell>
        <mxCell id="q9rqpO51LhmBKndgSOn--2" value="ALUsrcA" style="text;html=1;align=center;verticalAlign=middle;whiteSpace=wrap;rounded=0;" parent="F4LApp7SRapzV72RJLrX-28" vertex="1">
          <mxGeometry x="100" y="20" width="50" height="20" as="geometry" />
        </mxCell>
        <mxCell id="zFS1pn2A8cmfrVWvFFyQ-54" value="" style="group" vertex="1" connectable="0" parent="F4LApp7SRapzV72RJLrX-28">
          <mxGeometry x="40" y="430" width="20" height="90" as="geometry" />
        </mxCell>
        <mxCell id="zFS1pn2A8cmfrVWvFFyQ-55" value="" style="triangle;whiteSpace=wrap;html=1;rotation=90;" vertex="1" parent="zFS1pn2A8cmfrVWvFFyQ-54">
          <mxGeometry x="5" y="75" width="10" height="20" as="geometry" />
        </mxCell>
        <mxCell id="zFS1pn2A8cmfrVWvFFyQ-56" value="" style="edgeStyle=none;orthogonalLoop=1;jettySize=auto;html=1;rounded=0;" edge="1" parent="zFS1pn2A8cmfrVWvFFyQ-54">
          <mxGeometry width="100" relative="1" as="geometry">
            <mxPoint x="10" as="sourcePoint" />
            <mxPoint x="10" y="80" as="targetPoint" />
            <Array as="points" />
          </mxGeometry>
        </mxCell>
        <mxCell id="zFS1pn2A8cmfrVWvFFyQ-57" value="CLK" style="edgeLabel;html=1;align=center;verticalAlign=middle;resizable=0;points=[];" vertex="1" connectable="0" parent="zFS1pn2A8cmfrVWvFFyQ-56">
          <mxGeometry x="-0.0019" relative="1" as="geometry">
            <mxPoint as="offset" />
          </mxGeometry>
        </mxCell>
        <mxCell id="F4LApp7SRapzV72RJLrX-58" value="" style="group" parent="1" vertex="1" connectable="0">
          <mxGeometry x="1390" y="640" width="120" height="160" as="geometry" />
        </mxCell>
        <mxCell id="-hvyRLRQOOJ3VwnVLbOB-57" value="ALU" style="whiteSpace=wrap;html=1;shadow=1;fontSize=18;fillColor=#f5f5f5;strokeColor=#666666;resizeWidth=0;comic=0;rotatable=1;treeFolding=0;collapsible=0;dropTarget=0;container=0;noLabel=0;portConstraintRotation=0;gradientColor=none;" parent="F4LApp7SRapzV72RJLrX-58" vertex="1">
          <mxGeometry width="120" height="160" as="geometry" />
        </mxCell>
        <mxCell id="F4LApp7SRapzV72RJLrX-6" value="ALUcontrol" style="text;html=1;align=center;verticalAlign=middle;whiteSpace=wrap;rounded=0;" parent="F4LApp7SRapzV72RJLrX-58" vertex="1">
          <mxGeometry x="30" width="60" height="20" as="geometry" />
        </mxCell>
        <mxCell id="F4LApp7SRapzV72RJLrX-85" value="ALUresult" style="text;html=1;align=right;verticalAlign=middle;whiteSpace=wrap;rounded=0;" parent="F4LApp7SRapzV72RJLrX-58" vertex="1">
          <mxGeometry x="60" y="140" width="60" height="20" as="geometry" />
        </mxCell>
        <mxCell id="laC3dYbV331lfGwgBf-x-6" value="srcA" style="text;html=1;align=left;verticalAlign=middle;whiteSpace=wrap;rounded=0;" parent="F4LApp7SRapzV72RJLrX-58" vertex="1">
          <mxGeometry y="30" width="30" height="20" as="geometry" />
        </mxCell>
        <mxCell id="laC3dYbV331lfGwgBf-x-7" value="srcB" style="text;html=1;align=left;verticalAlign=middle;whiteSpace=wrap;rounded=0;" parent="F4LApp7SRapzV72RJLrX-58" vertex="1">
          <mxGeometry y="50" width="30" height="20" as="geometry" />
        </mxCell>
        <mxCell id="laC3dYbV331lfGwgBf-x-29" value="NZCV" style="text;html=1;align=right;verticalAlign=middle;whiteSpace=wrap;rounded=0;" parent="F4LApp7SRapzV72RJLrX-58" vertex="1">
          <mxGeometry x="80" y="110" width="40" height="20" as="geometry" />
        </mxCell>
        <mxCell id="F4LApp7SRapzV72RJLrX-61" value="" style="group" parent="1" vertex="1" connectable="0">
          <mxGeometry x="1020" y="500" width="150" height="160" as="geometry" />
        </mxCell>
        <mxCell id="-hvyRLRQOOJ3VwnVLbOB-56" value="ALU&lt;div&gt;Control&lt;/div&gt;" style="whiteSpace=wrap;html=1;shadow=1;fontSize=18;fillColor=#f5f5f5;strokeColor=#666666;" parent="F4LApp7SRapzV72RJLrX-61" vertex="1">
          <mxGeometry x="10" width="140" height="160" as="geometry" />
        </mxCell>
        <mxCell id="-hvyRLRQOOJ3VwnVLbOB-61" value="ALUop" style="text;html=1;align=left;verticalAlign=middle;whiteSpace=wrap;rounded=0;" parent="F4LApp7SRapzV72RJLrX-61" vertex="1">
          <mxGeometry x="10" y="8.421052631578947" width="40" height="16.842105263157894" as="geometry" />
        </mxCell>
        <mxCell id="-hvyRLRQOOJ3VwnVLbOB-64" value="funct3" style="text;html=1;align=left;verticalAlign=middle;whiteSpace=wrap;rounded=0;" parent="F4LApp7SRapzV72RJLrX-61" vertex="1">
          <mxGeometry x="10" y="33.68421052631579" width="40" height="16.842105263157894" as="geometry" />
        </mxCell>
        <mxCell id="-hvyRLRQOOJ3VwnVLbOB-65" value="funct7" style="text;html=1;align=left;verticalAlign=middle;whiteSpace=wrap;rounded=0;" parent="F4LApp7SRapzV72RJLrX-61" vertex="1">
          <mxGeometry x="10" y="50.526315789473685" width="40" height="16.842105263157894" as="geometry" />
        </mxCell>
        <mxCell id="F4LApp7SRapzV72RJLrX-1" value="ALUcontrol" style="text;html=1;align=center;verticalAlign=middle;whiteSpace=wrap;rounded=0;" parent="F4LApp7SRapzV72RJLrX-61" vertex="1">
          <mxGeometry x="80" y="110" width="70" height="20" as="geometry" />
        </mxCell>
        <mxCell id="F4LApp7SRapzV72RJLrX-75" style="edgeStyle=orthogonalEdgeStyle;rounded=0;orthogonalLoop=1;jettySize=auto;html=1;entryX=0;entryY=0.5;entryDx=0;entryDy=0;" parent="1" source="F4LApp7SRapzV72RJLrX-56" target="F4LApp7SRapzV72RJLrX-43" edge="1">
          <mxGeometry relative="1" as="geometry" />
        </mxCell>
        <mxCell id="F4LApp7SRapzV72RJLrX-78" style="edgeStyle=orthogonalEdgeStyle;rounded=0;orthogonalLoop=1;jettySize=auto;html=1;entryX=0.5;entryY=1;entryDx=0;entryDy=0;" parent="1" source="F4LApp7SRapzV72RJLrX-44" target="-hvyRLRQOOJ3VwnVLbOB-43" edge="1">
          <mxGeometry relative="1" as="geometry">
            <mxPoint x="1541" y="910" as="targetPoint" />
            <Array as="points">
              <mxPoint x="1380" y="920" />
              <mxPoint x="1380" y="950" />
            </Array>
          </mxGeometry>
        </mxCell>
        <mxCell id="laC3dYbV331lfGwgBf-x-2" style="edgeStyle=orthogonalEdgeStyle;rounded=0;orthogonalLoop=1;jettySize=auto;html=1;entryX=0.25;entryY=1;entryDx=0;entryDy=0;" parent="1" source="F4LApp7SRapzV72RJLrX-85" target="-hvyRLRQOOJ3VwnVLbOB-43" edge="1">
          <mxGeometry relative="1" as="geometry">
            <Array as="points">
              <mxPoint x="1560" y="790" />
              <mxPoint x="1560" y="915" />
            </Array>
          </mxGeometry>
        </mxCell>
        <mxCell id="laC3dYbV331lfGwgBf-x-4" value="to RegF" style="edgeLabel;html=1;align=center;verticalAlign=middle;resizable=0;points=[];" parent="laC3dYbV331lfGwgBf-x-2" vertex="1" connectable="0">
          <mxGeometry relative="1" as="geometry">
            <mxPoint as="offset" />
          </mxGeometry>
        </mxCell>
        <mxCell id="laC3dYbV331lfGwgBf-x-9" style="edgeStyle=orthogonalEdgeStyle;rounded=0;orthogonalLoop=1;jettySize=auto;html=1;entryX=0;entryY=0.5;entryDx=0;entryDy=0;" parent="1" source="JqTOLJbfiFGYhZ1s0W8t-13" target="F4LApp7SRapzV72RJLrX-41" edge="1">
          <mxGeometry relative="1" as="geometry">
            <Array as="points">
              <mxPoint x="750" y="1010" />
              <mxPoint x="920" y="1010" />
              <mxPoint x="920" y="920" />
            </Array>
          </mxGeometry>
        </mxCell>
        <mxCell id="laC3dYbV331lfGwgBf-x-13" style="edgeStyle=orthogonalEdgeStyle;rounded=0;orthogonalLoop=1;jettySize=auto;html=1;entryX=0.25;entryY=0;entryDx=0;entryDy=0;" parent="1" source="3a17f1ce550125da-2" target="laC3dYbV331lfGwgBf-x-20" edge="1">
          <mxGeometry relative="1" as="geometry">
            <Array as="points">
              <mxPoint x="960" y="790" />
              <mxPoint x="960" y="740" />
            </Array>
          </mxGeometry>
        </mxCell>
        <mxCell id="laC3dYbV331lfGwgBf-x-14" value="" style="group" parent="1" vertex="1" connectable="0">
          <mxGeometry x="440" y="990" width="210" height="70" as="geometry" />
        </mxCell>
        <mxCell id="laC3dYbV331lfGwgBf-x-15" value="&lt;div&gt;Immediate&lt;/div&gt;&lt;div&gt;Sign-Extension&lt;/div&gt;" style="whiteSpace=wrap;html=1;shadow=1;fontSize=18;fillColor=#f5f5f5;strokeColor=#666666;" parent="laC3dYbV331lfGwgBf-x-14" vertex="1">
          <mxGeometry x="20" y="-10" width="180" height="80" as="geometry" />
        </mxCell>
        <mxCell id="laC3dYbV331lfGwgBf-x-16" value="imm" style="text;html=1;align=center;verticalAlign=middle;whiteSpace=wrap;rounded=0;" parent="laC3dYbV331lfGwgBf-x-14" vertex="1">
          <mxGeometry x="20" y="-10" width="40" height="10" as="geometry" />
        </mxCell>
        <mxCell id="laC3dYbV331lfGwgBf-x-17" value="ex-imm" style="text;html=1;align=right;verticalAlign=middle;whiteSpace=wrap;rounded=0;" parent="laC3dYbV331lfGwgBf-x-14" vertex="1">
          <mxGeometry x="150" y="50" width="50" height="20" as="geometry" />
        </mxCell>
        <mxCell id="laC3dYbV331lfGwgBf-x-31" value="" style="group" parent="1" vertex="1" connectable="0">
          <mxGeometry x="1560" y="200" width="100" height="160" as="geometry" />
        </mxCell>
        <mxCell id="laC3dYbV331lfGwgBf-x-27" value="Branch&lt;div&gt;Logic&lt;/div&gt;" style="whiteSpace=wrap;html=1;shadow=1;fontSize=18;fillColor=#f5f5f5;strokeColor=#666666;" parent="laC3dYbV331lfGwgBf-x-31" vertex="1">
          <mxGeometry y="-40" width="100" height="200" as="geometry" />
        </mxCell>
        <mxCell id="laC3dYbV331lfGwgBf-x-28" value="NZCV" style="text;html=1;align=left;verticalAlign=middle;whiteSpace=wrap;rounded=0;" parent="laC3dYbV331lfGwgBf-x-31" vertex="1">
          <mxGeometry y="20" width="26.67" height="20" as="geometry" />
        </mxCell>
        <mxCell id="laC3dYbV331lfGwgBf-x-42" value="Branch" style="text;html=1;align=left;verticalAlign=middle;whiteSpace=wrap;rounded=0;" parent="laC3dYbV331lfGwgBf-x-31" vertex="1">
          <mxGeometry y="86.66666666666666" width="26.666666666666668" height="26.666666666666664" as="geometry" />
        </mxCell>
        <mxCell id="s6hKSkpy---ewfnxM8lV-11" value="BTaken" style="text;html=1;align=right;verticalAlign=middle;whiteSpace=wrap;rounded=0;" parent="laC3dYbV331lfGwgBf-x-31" vertex="1">
          <mxGeometry x="64.29" y="10" width="35.71" height="20" as="geometry" />
        </mxCell>
        <mxCell id="q9rqpO51LhmBKndgSOn--34" value="funct3" style="text;html=1;align=left;verticalAlign=middle;whiteSpace=wrap;rounded=0;" parent="laC3dYbV331lfGwgBf-x-31" vertex="1">
          <mxGeometry y="130" width="26.67" height="16.67" as="geometry" />
        </mxCell>
        <mxCell id="laC3dYbV331lfGwgBf-x-32" style="edgeStyle=orthogonalEdgeStyle;rounded=0;orthogonalLoop=1;jettySize=auto;html=1;entryX=0;entryY=0.5;entryDx=0;entryDy=0;" parent="1" source="laC3dYbV331lfGwgBf-x-29" target="laC3dYbV331lfGwgBf-x-28" edge="1">
          <mxGeometry relative="1" as="geometry">
            <Array as="points">
              <mxPoint x="1580" y="760" />
              <mxPoint x="1580" y="380" />
              <mxPoint x="1540" y="380" />
              <mxPoint x="1540" y="230" />
            </Array>
          </mxGeometry>
        </mxCell>
        <mxCell id="laC3dYbV331lfGwgBf-x-34" style="edgeStyle=orthogonalEdgeStyle;rounded=0;orthogonalLoop=1;jettySize=auto;html=1;entryX=0;entryY=0.5;entryDx=0;entryDy=0;" parent="1" source="laC3dYbV331lfGwgBf-x-33" target="laC3dYbV331lfGwgBf-x-11" edge="1">
          <mxGeometry relative="1" as="geometry" />
        </mxCell>
        <mxCell id="MuofbJJSr7D3HssxxxzW-17" style="edgeStyle=orthogonalEdgeStyle;rounded=0;orthogonalLoop=1;jettySize=auto;html=1;entryX=0;entryY=0.5;entryDx=0;entryDy=0;" parent="1" source="0RyyWnerKbfPe0gcl8zv-8" target="jQQxH6LwXFBK_Qau7PEY-24" edge="1">
          <mxGeometry relative="1" as="geometry">
            <Array as="points">
              <mxPoint x="190" y="640" />
              <mxPoint x="190" y="220" />
            </Array>
          </mxGeometry>
        </mxCell>
        <mxCell id="s6hKSkpy---ewfnxM8lV-9" style="edgeStyle=orthogonalEdgeStyle;rounded=0;orthogonalLoop=1;jettySize=auto;html=1;entryX=0;entryY=0.5;entryDx=0;entryDy=0;exitX=1;exitY=0.5;exitDx=0;exitDy=0;" parent="1" source="F4LApp7SRapzV72RJLrX-85" target="jQQxH6LwXFBK_Qau7PEY-26" edge="1">
          <mxGeometry relative="1" as="geometry">
            <Array as="points">
              <mxPoint x="1540" y="790" />
              <mxPoint x="1540" y="480" />
              <mxPoint x="100" y="480" />
              <mxPoint x="100" y="360" />
            </Array>
            <mxPoint x="97.25" y="284.375" as="targetPoint" />
          </mxGeometry>
        </mxCell>
        <mxCell id="s6hKSkpy---ewfnxM8lV-12" style="edgeStyle=orthogonalEdgeStyle;rounded=0;orthogonalLoop=1;jettySize=auto;html=1;entryX=0;entryY=0.5;entryDx=0;entryDy=0;exitX=1;exitY=0.5;exitDx=0;exitDy=0;" parent="1" source="s6hKSkpy---ewfnxM8lV-11" target="jQQxH6LwXFBK_Qau7PEY-28" edge="1">
          <mxGeometry relative="1" as="geometry">
            <Array as="points">
              <mxPoint x="1680" y="220" />
              <mxPoint x="1680" y="120" />
              <mxPoint x="160" y="120" />
              <mxPoint x="160" y="280" />
            </Array>
          </mxGeometry>
        </mxCell>
        <mxCell id="s6hKSkpy---ewfnxM8lV-23" style="edgeStyle=orthogonalEdgeStyle;rounded=0;orthogonalLoop=1;jettySize=auto;html=1;entryX=0;entryY=0.5;entryDx=0;entryDy=0;" parent="1" source="F4LApp7SRapzV72RJLrX-85" target="jQQxH6LwXFBK_Qau7PEY-27" edge="1">
          <mxGeometry relative="1" as="geometry">
            <Array as="points">
              <mxPoint x="1540" y="790" />
              <mxPoint x="1540" y="480" />
              <mxPoint x="100" y="480" />
              <mxPoint x="100" y="400" />
            </Array>
            <mxPoint x="211" y="410" as="targetPoint" />
          </mxGeometry>
        </mxCell>
        <mxCell id="zFS1pn2A8cmfrVWvFFyQ-74" value="to PCC" style="edgeLabel;html=1;align=center;verticalAlign=middle;resizable=0;points=[];" vertex="1" connectable="0" parent="s6hKSkpy---ewfnxM8lV-23">
          <mxGeometry x="-0.9008" y="1" relative="1" as="geometry">
            <mxPoint as="offset" />
          </mxGeometry>
        </mxCell>
        <mxCell id="s6hKSkpy---ewfnxM8lV-34" style="edgeStyle=orthogonalEdgeStyle;rounded=0;orthogonalLoop=1;jettySize=auto;html=1;entryX=0.75;entryY=1;entryDx=0;entryDy=0;exitX=1;exitY=0.5;exitDx=0;exitDy=0;" parent="1" source="s6hKSkpy---ewfnxM8lV-31" target="-hvyRLRQOOJ3VwnVLbOB-43" edge="1">
          <mxGeometry relative="1" as="geometry">
            <Array as="points">
              <mxPoint x="660" y="840" />
              <mxPoint x="660" y="1030" />
              <mxPoint x="1560" y="1030" />
              <mxPoint x="1560" y="985" />
            </Array>
          </mxGeometry>
        </mxCell>
        <mxCell id="q9rqpO51LhmBKndgSOn--3" value="" style="group" parent="1" vertex="1" connectable="0">
          <mxGeometry x="1290" y="710" width="60" height="80" as="geometry" />
        </mxCell>
        <mxCell id="laC3dYbV331lfGwgBf-x-11" value="" style="shape=trapezoid;perimeter=trapezoidPerimeter;whiteSpace=wrap;html=1;fixedSize=1;shadow=1;strokeColor=#666666;align=center;verticalAlign=middle;fontFamily=Helvetica;fontSize=18;fontColor=default;fillColor=#f5f5f5;rotation=90;" parent="q9rqpO51LhmBKndgSOn--3" vertex="1">
          <mxGeometry x="-10" y="30" width="80" height="30" as="geometry" />
        </mxCell>
        <mxCell id="laC3dYbV331lfGwgBf-x-20" value="00&lt;div&gt;&lt;br&gt;&lt;div&gt;01&lt;/div&gt;&lt;/div&gt;" style="text;html=1;align=center;verticalAlign=middle;whiteSpace=wrap;rounded=0;" parent="q9rqpO51LhmBKndgSOn--3" vertex="1">
          <mxGeometry y="30" width="60" height="30" as="geometry" />
        </mxCell>
        <mxCell id="q9rqpO51LhmBKndgSOn--12" style="edgeStyle=orthogonalEdgeStyle;rounded=0;orthogonalLoop=1;jettySize=auto;html=1;entryX=0;entryY=0.5;entryDx=0;entryDy=0;" parent="1" source="q9rqpO51LhmBKndgSOn--2" target="q9rqpO51LhmBKndgSOn--5" edge="1">
          <mxGeometry relative="1" as="geometry" />
        </mxCell>
        <mxCell id="q9rqpO51LhmBKndgSOn--22" style="edgeStyle=orthogonalEdgeStyle;rounded=0;orthogonalLoop=1;jettySize=auto;html=1;entryX=0;entryY=0.5;entryDx=0;entryDy=0;" parent="1" source="-hvyRLRQOOJ3VwnVLbOB-8" target="JqTOLJbfiFGYhZ1s0W8t-8" edge="1">
          <mxGeometry relative="1" as="geometry">
            <Array as="points">
              <mxPoint x="680" y="670" />
              <mxPoint x="680" y="800" />
              <mxPoint x="720" y="800" />
            </Array>
          </mxGeometry>
        </mxCell>
        <mxCell id="q9rqpO51LhmBKndgSOn--23" style="edgeStyle=orthogonalEdgeStyle;rounded=0;orthogonalLoop=1;jettySize=auto;html=1;entryX=0;entryY=0.5;entryDx=0;entryDy=0;" parent="1" source="-hvyRLRQOOJ3VwnVLbOB-9" target="JqTOLJbfiFGYhZ1s0W8t-10" edge="1">
          <mxGeometry relative="1" as="geometry">
            <Array as="points">
              <mxPoint x="670" y="700" />
              <mxPoint x="670" y="870" />
            </Array>
          </mxGeometry>
        </mxCell>
        <mxCell id="q9rqpO51LhmBKndgSOn--24" style="edgeStyle=orthogonalEdgeStyle;rounded=0;orthogonalLoop=1;jettySize=auto;html=1;entryX=0.5;entryY=0;entryDx=0;entryDy=0;" parent="1" source="-hvyRLRQOOJ3VwnVLbOB-10" target="laC3dYbV331lfGwgBf-x-16" edge="1">
          <mxGeometry relative="1" as="geometry">
            <Array as="points">
              <mxPoint x="580" y="740" />
              <mxPoint x="580" y="880" />
              <mxPoint x="480" y="880" />
            </Array>
          </mxGeometry>
        </mxCell>
        <mxCell id="q9rqpO51LhmBKndgSOn--25" style="edgeStyle=orthogonalEdgeStyle;rounded=0;orthogonalLoop=1;jettySize=auto;html=1;entryX=0;entryY=0.5;entryDx=0;entryDy=0;" parent="1" source="-hvyRLRQOOJ3VwnVLbOB-59" target="-hvyRLRQOOJ3VwnVLbOB-61" edge="1">
          <mxGeometry relative="1" as="geometry">
            <Array as="points">
              <mxPoint x="1000" y="270" />
              <mxPoint x="1000" y="517" />
            </Array>
            <mxPoint x="1030" y="500" as="targetPoint" />
          </mxGeometry>
        </mxCell>
        <mxCell id="q9rqpO51LhmBKndgSOn--27" value="" style="group" parent="1" vertex="1" connectable="0">
          <mxGeometry x="220" y="200" width="240" height="260" as="geometry" />
        </mxCell>
        <mxCell id="jQQxH6LwXFBK_Qau7PEY-23" value="PC_Control&lt;div&gt;Unit&lt;/div&gt;" style="whiteSpace=wrap;html=1;shadow=1;fontSize=18;fillColor=#f5f5f5;strokeColor=#666666;" parent="q9rqpO51LhmBKndgSOn--27" vertex="1">
          <mxGeometry width="240" height="260" as="geometry" />
        </mxCell>
        <mxCell id="jQQxH6LwXFBK_Qau7PEY-24" value="PC" style="text;html=1;align=left;verticalAlign=middle;whiteSpace=wrap;rounded=0;" parent="q9rqpO51LhmBKndgSOn--27" vertex="1">
          <mxGeometry y="10" width="19.2" height="20" as="geometry" />
        </mxCell>
        <mxCell id="jQQxH6LwXFBK_Qau7PEY-25" value="Jump" style="text;html=1;align=left;verticalAlign=middle;whiteSpace=wrap;rounded=0;" parent="q9rqpO51LhmBKndgSOn--27" vertex="1">
          <mxGeometry y="50" width="38.4" height="20" as="geometry" />
        </mxCell>
        <mxCell id="jQQxH6LwXFBK_Qau7PEY-26" value="J_Target" style="text;html=1;align=left;verticalAlign=middle;whiteSpace=wrap;rounded=0;" parent="q9rqpO51LhmBKndgSOn--27" vertex="1">
          <mxGeometry y="150" width="48" height="20" as="geometry" />
        </mxCell>
        <mxCell id="jQQxH6LwXFBK_Qau7PEY-27" value="B_Target" style="text;html=1;align=left;verticalAlign=middle;whiteSpace=wrap;rounded=0;" parent="q9rqpO51LhmBKndgSOn--27" vertex="1">
          <mxGeometry y="190" width="48" height="20" as="geometry" />
        </mxCell>
        <mxCell id="jQQxH6LwXFBK_Qau7PEY-28" value="BTaken" style="text;html=1;align=left;verticalAlign=middle;whiteSpace=wrap;rounded=0;" parent="q9rqpO51LhmBKndgSOn--27" vertex="1">
          <mxGeometry y="70" width="48" height="20" as="geometry" />
        </mxCell>
        <mxCell id="jQQxH6LwXFBK_Qau7PEY-29" value="NextPC" style="text;html=1;align=right;verticalAlign=middle;whiteSpace=wrap;rounded=0;" parent="q9rqpO51LhmBKndgSOn--27" vertex="1">
          <mxGeometry x="192" y="60" width="48" height="20" as="geometry" />
        </mxCell>
        <mxCell id="q9rqpO51LhmBKndgSOn--30" value="00 = PC+4&lt;div&gt;if Jump = 1 → NextPC = J_Target.&lt;br&gt;if BTaken = 1&amp;nbsp;&lt;span style=&quot;color: rgba(0, 0, 0, 0); font-family: monospace; font-size: 0px; text-align: start; white-space: nowrap; background-color: transparent;&quot;&gt;%3CmxGraphModel%3E%3Croot%3E%3CmxCell%20id%3D%220%22%2F%3E%3CmxCell%20id%3D%221%22%20parent%3D%220%22%2F%3E%3CmxCell%20id%3D%222%22%20value%3D%22%22%20style%3D%22group%22%20vertex%3D%221%22%20connectable%3D%220%22%20parent%3D%221%22%3E%3CmxGeometry%20x%3D%221790%22%20y%3D%22500%22%20width%3D%2260%22%20height%3D%2282.5%22%20as%3D%22geometry%22%2F%3E%3C%2FmxCell%3E%3CmxCell%20id%3D%223%22%20value%3D%22%22%20style%3D%22shape%3Dtrapezoid%3Bperimeter%3DtrapezoidPerimeter%3BwhiteSpace%3Dwrap%3Bhtml%3D1%3BfixedSize%3D1%3Bshadow%3D1%3BstrokeColor%3D%23666666%3Balign%3Dcenter%3BverticalAlign%3Dmiddle%3BfontFamily%3DHelvetica%3BfontSize%3D18%3BfontColor%3Ddefault%3BfillColor%3D%23f5f5f5%3Brotation%3D90%3B%22%20vertex%3D%221%22%20parent%3D%222%22%3E%3CmxGeometry%20x%3D%22-11.25%22%20y%3D%2226.25%22%20width%3D%2282.5%22%20height%3D%2230%22%20as%3D%22geometry%22%2F%3E%3C%2FmxCell%3E%3CmxCell%20id%3D%224%22%20value%3D%2200%26lt%3Bdiv%26gt%3B%26lt%3Bbr%26gt%3B%26lt%3Bdiv%26gt%3B01%26lt%3B%2Fdiv%26gt%3B%26lt%3B%2Fdiv%26gt%3B%22%20style%3D%22text%3Bhtml%3D1%3Balign%3Dcenter%3BverticalAlign%3Dmiddle%3BwhiteSpace%3Dwrap%3Brounded%3D0%3B%22%20vertex%3D%221%22%20parent%3D%222%22%3E%3CmxGeometry%20y%3D%2226.25%22%20width%3D%2260%22%20height%3D%2230%22%20as%3D%22geometry%22%2F%3E%3C%2FmxCell%3E%3C%2Froot%3E%3C%2FmxGraphModel%3E&lt;/span&gt;&lt;span style=&quot;background-color: transparent;&quot;&gt;→ NextPC = B_Target.&lt;/span&gt;&lt;/div&gt;" style="text;html=1;align=center;verticalAlign=middle;whiteSpace=wrap;rounded=0;" parent="q9rqpO51LhmBKndgSOn--27" vertex="1">
          <mxGeometry x="9.6" width="220.79999999999998" height="60" as="geometry" />
        </mxCell>
        <mxCell id="q9rqpO51LhmBKndgSOn--36" style="edgeStyle=orthogonalEdgeStyle;rounded=0;orthogonalLoop=1;jettySize=auto;html=1;entryX=0.5;entryY=0;entryDx=0;entryDy=0;" parent="1" source="F4LApp7SRapzV72RJLrX-73" target="F4LApp7SRapzV72RJLrX-42" edge="1">
          <mxGeometry relative="1" as="geometry">
            <Array as="points">
              <mxPoint x="930" y="370" />
              <mxPoint x="930" y="650" />
              <mxPoint x="1010" y="650" />
            </Array>
          </mxGeometry>
        </mxCell>
        <mxCell id="zFS1pn2A8cmfrVWvFFyQ-2" style="edgeStyle=orthogonalEdgeStyle;rounded=0;orthogonalLoop=1;jettySize=auto;html=1;entryX=0.384;entryY=0.014;entryDx=0;entryDy=0;entryPerimeter=0;" edge="1" parent="1" source="-hvyRLRQOOJ3VwnVLbOB-48" target="zFS1pn2A8cmfrVWvFFyQ-1">
          <mxGeometry relative="1" as="geometry">
            <Array as="points">
              <mxPoint x="810" y="580" />
              <mxPoint x="810" y="580" />
            </Array>
          </mxGeometry>
        </mxCell>
        <mxCell id="zFS1pn2A8cmfrVWvFFyQ-9" style="edgeStyle=orthogonalEdgeStyle;rounded=0;orthogonalLoop=1;jettySize=auto;html=1;" edge="1" parent="1" source="-hvyRLRQOOJ3VwnVLbOB-11">
          <mxGeometry relative="1" as="geometry">
            <mxPoint x="1030" y="530" as="targetPoint" />
            <Array as="points">
              <mxPoint x="660" y="570" />
              <mxPoint x="660" y="530" />
            </Array>
          </mxGeometry>
        </mxCell>
        <mxCell id="zFS1pn2A8cmfrVWvFFyQ-10" style="edgeStyle=orthogonalEdgeStyle;rounded=0;orthogonalLoop=1;jettySize=auto;html=1;entryX=0;entryY=0.5;entryDx=0;entryDy=0;" edge="1" parent="1" source="-hvyRLRQOOJ3VwnVLbOB-12" target="-hvyRLRQOOJ3VwnVLbOB-65">
          <mxGeometry relative="1" as="geometry">
            <Array as="points">
              <mxPoint x="680" y="590" />
              <mxPoint x="680" y="559" />
            </Array>
          </mxGeometry>
        </mxCell>
        <mxCell id="zFS1pn2A8cmfrVWvFFyQ-11" style="edgeStyle=orthogonalEdgeStyle;rounded=0;orthogonalLoop=1;jettySize=auto;html=1;entryX=0;entryY=0.5;entryDx=0;entryDy=0;" edge="1" parent="1" source="-hvyRLRQOOJ3VwnVLbOB-6" target="-hvyRLRQOOJ3VwnVLbOB-49">
          <mxGeometry relative="1" as="geometry">
            <mxPoint x="660" y="250" as="targetPoint" />
            <Array as="points">
              <mxPoint x="640" y="520" />
              <mxPoint x="640" y="240" />
            </Array>
          </mxGeometry>
        </mxCell>
        <mxCell id="zFS1pn2A8cmfrVWvFFyQ-12" style="edgeStyle=orthogonalEdgeStyle;rounded=0;orthogonalLoop=1;jettySize=auto;html=1;entryX=0;entryY=0.5;entryDx=0;entryDy=0;" edge="1" parent="1" source="s6hKSkpy---ewfnxM8lV-1" target="jQQxH6LwXFBK_Qau7PEY-25">
          <mxGeometry relative="1" as="geometry">
            <Array as="points">
              <mxPoint x="880" y="320" />
              <mxPoint x="880" y="160" />
              <mxPoint x="200" y="160" />
              <mxPoint x="200" y="260" />
            </Array>
          </mxGeometry>
        </mxCell>
        <mxCell id="zFS1pn2A8cmfrVWvFFyQ-14" style="edgeStyle=orthogonalEdgeStyle;rounded=0;orthogonalLoop=1;jettySize=auto;html=1;entryX=0;entryY=0.5;entryDx=0;entryDy=0;" edge="1" parent="1" source="laC3dYbV331lfGwgBf-x-40" target="laC3dYbV331lfGwgBf-x-42">
          <mxGeometry relative="1" as="geometry">
            <Array as="points">
              <mxPoint x="1560" y="300" />
            </Array>
          </mxGeometry>
        </mxCell>
        <mxCell id="zFS1pn2A8cmfrVWvFFyQ-16" style="edgeStyle=orthogonalEdgeStyle;rounded=0;orthogonalLoop=1;jettySize=auto;html=1;entryX=0.082;entryY=0.4;entryDx=0;entryDy=0;entryPerimeter=0;" edge="1" parent="1" source="laC3dYbV331lfGwgBf-x-37" target="-hvyRLRQOOJ3VwnVLbOB-43">
          <mxGeometry relative="1" as="geometry">
            <mxPoint x="1660" y="890" as="targetPoint" />
            <Array as="points">
              <mxPoint x="1660" y="400" />
            </Array>
          </mxGeometry>
        </mxCell>
        <mxCell id="zFS1pn2A8cmfrVWvFFyQ-17" style="edgeStyle=orthogonalEdgeStyle;rounded=0;orthogonalLoop=1;jettySize=auto;html=1;entryX=0;entryY=0.5;entryDx=0;entryDy=0;" edge="1" parent="1" source="F4LApp7SRapzV72RJLrX-92" target="JqTOLJbfiFGYhZ1s0W8t-13">
          <mxGeometry relative="1" as="geometry">
            <Array as="points">
              <mxPoint x="1720" y="950" />
              <mxPoint x="1720" y="1100" />
              <mxPoint x="700" y="1100" />
              <mxPoint x="700" y="960" />
            </Array>
          </mxGeometry>
        </mxCell>
        <mxCell id="zFS1pn2A8cmfrVWvFFyQ-18" style="edgeStyle=orthogonalEdgeStyle;rounded=0;orthogonalLoop=1;jettySize=auto;html=1;entryX=0;entryY=0.5;entryDx=0;entryDy=0;" edge="1" parent="1" source="0RyyWnerKbfPe0gcl8zv-4" target="-hvyRLRQOOJ3VwnVLbOB-2">
          <mxGeometry relative="1" as="geometry" />
        </mxCell>
        <mxCell id="zFS1pn2A8cmfrVWvFFyQ-27" style="edgeStyle=orthogonalEdgeStyle;rounded=0;orthogonalLoop=1;jettySize=auto;html=1;entryX=0;entryY=0.5;entryDx=0;entryDy=0;" edge="1" parent="1" source="0RyyWnerKbfPe0gcl8zv-8" target="0RyyWnerKbfPe0gcl8zv-3">
          <mxGeometry relative="1" as="geometry" />
        </mxCell>
        <mxCell id="zFS1pn2A8cmfrVWvFFyQ-28" style="edgeStyle=orthogonalEdgeStyle;rounded=0;orthogonalLoop=1;jettySize=auto;html=1;entryX=0;entryY=0.5;entryDx=0;entryDy=0;" edge="1" parent="1" source="0RyyWnerKbfPe0gcl8zv-8" target="zFS1pn2A8cmfrVWvFFyQ-44">
          <mxGeometry relative="1" as="geometry">
            <Array as="points">
              <mxPoint x="170" y="640" />
              <mxPoint x="170" y="1120" />
              <mxPoint x="1220" y="1120" />
              <mxPoint x="1220" y="690" />
            </Array>
          </mxGeometry>
        </mxCell>
        <mxCell id="zFS1pn2A8cmfrVWvFFyQ-76" value="to ALUsrcA" style="edgeLabel;html=1;align=center;verticalAlign=middle;resizable=0;points=[];" vertex="1" connectable="0" parent="zFS1pn2A8cmfrVWvFFyQ-28">
          <mxGeometry x="-0.7499" y="-3" relative="1" as="geometry">
            <mxPoint as="offset" />
          </mxGeometry>
        </mxCell>
        <mxCell id="zFS1pn2A8cmfrVWvFFyQ-30" style="edgeStyle=orthogonalEdgeStyle;rounded=0;orthogonalLoop=1;jettySize=auto;html=1;entryX=0;entryY=0.5;entryDx=0;entryDy=0;" edge="1" parent="1" source="0RyyWnerKbfPe0gcl8zv-8" target="s6hKSkpy---ewfnxM8lV-30">
          <mxGeometry relative="1" as="geometry">
            <Array as="points">
              <mxPoint x="180" y="640" />
              <mxPoint x="180" y="840" />
            </Array>
          </mxGeometry>
        </mxCell>
        <mxCell id="zFS1pn2A8cmfrVWvFFyQ-33" value="" style="group" vertex="1" connectable="0" parent="1">
          <mxGeometry x="220" y="810" width="90" height="120" as="geometry" />
        </mxCell>
        <mxCell id="s6hKSkpy---ewfnxM8lV-29" value="PCplus4&lt;div&gt;(+)&lt;/div&gt;" style="whiteSpace=wrap;html=1;shadow=1;fontSize=18;fillColor=#f5f5f5;strokeColor=#666666;" parent="zFS1pn2A8cmfrVWvFFyQ-33" vertex="1">
          <mxGeometry x="20" width="70" height="120" as="geometry" />
        </mxCell>
        <mxCell id="s6hKSkpy---ewfnxM8lV-30" value="PC" style="text;html=1;align=left;verticalAlign=middle;whiteSpace=wrap;rounded=0;" parent="zFS1pn2A8cmfrVWvFFyQ-33" vertex="1">
          <mxGeometry x="20" y="20" width="20" height="20" as="geometry" />
        </mxCell>
        <mxCell id="s6hKSkpy---ewfnxM8lV-31" value="PC+4" style="text;html=1;align=right;verticalAlign=middle;whiteSpace=wrap;rounded=0;" parent="zFS1pn2A8cmfrVWvFFyQ-33" vertex="1">
          <mxGeometry x="60" y="20" width="30" height="20" as="geometry" />
        </mxCell>
        <mxCell id="s6hKSkpy---ewfnxM8lV-32" value="4" style="text;html=1;align=left;verticalAlign=middle;whiteSpace=wrap;rounded=0;" parent="zFS1pn2A8cmfrVWvFFyQ-33" vertex="1">
          <mxGeometry x="20" y="100" width="10" height="20" as="geometry" />
        </mxCell>
        <mxCell id="zFS1pn2A8cmfrVWvFFyQ-32" value="" style="endArrow=classic;html=1;rounded=0;entryX=0;entryY=0.5;entryDx=0;entryDy=0;" edge="1" parent="zFS1pn2A8cmfrVWvFFyQ-33" target="s6hKSkpy---ewfnxM8lV-32">
          <mxGeometry width="50" height="50" relative="1" as="geometry">
            <mxPoint x="-20" y="110" as="sourcePoint" />
            <mxPoint x="220" y="-20" as="targetPoint" />
          </mxGeometry>
        </mxCell>
        <mxCell id="zFS1pn2A8cmfrVWvFFyQ-35" style="edgeStyle=orthogonalEdgeStyle;rounded=0;orthogonalLoop=1;jettySize=auto;html=1;entryX=0;entryY=0.5;entryDx=0;entryDy=0;" edge="1" parent="1" source="jQQxH6LwXFBK_Qau7PEY-29" target="0RyyWnerKbfPe0gcl8zv-7">
          <mxGeometry relative="1" as="geometry">
            <Array as="points">
              <mxPoint x="480" y="270" />
              <mxPoint x="480" y="480" />
              <mxPoint x="60" y="480" />
              <mxPoint x="60" y="640" />
            </Array>
          </mxGeometry>
        </mxCell>
        <mxCell id="zFS1pn2A8cmfrVWvFFyQ-36" style="edgeStyle=orthogonalEdgeStyle;rounded=0;orthogonalLoop=1;jettySize=auto;html=1;entryX=0.75;entryY=1;entryDx=0;entryDy=0;" edge="1" parent="1" source="laC3dYbV331lfGwgBf-x-17" target="laC3dYbV331lfGwgBf-x-11">
          <mxGeometry relative="1" as="geometry">
            <Array as="points">
              <mxPoint x="1260" y="1050" />
              <mxPoint x="1260" y="775" />
            </Array>
          </mxGeometry>
        </mxCell>
        <mxCell id="zFS1pn2A8cmfrVWvFFyQ-38" style="edgeStyle=orthogonalEdgeStyle;rounded=0;orthogonalLoop=1;jettySize=auto;html=1;entryX=0;entryY=0.5;entryDx=0;entryDy=0;" edge="1" parent="1" source="-hvyRLRQOOJ3VwnVLbOB-7" target="JqTOLJbfiFGYhZ1s0W8t-5">
          <mxGeometry relative="1" as="geometry">
            <Array as="points">
              <mxPoint x="700" y="640" />
              <mxPoint x="700" y="760" />
            </Array>
          </mxGeometry>
        </mxCell>
        <mxCell id="zFS1pn2A8cmfrVWvFFyQ-41" style="edgeStyle=orthogonalEdgeStyle;rounded=0;orthogonalLoop=1;jettySize=auto;html=1;entryX=0;entryY=0.5;entryDx=0;entryDy=0;" edge="1" parent="1" source="F4LApp7SRapzV72RJLrX-85" target="F4LApp7SRapzV72RJLrX-40">
          <mxGeometry relative="1" as="geometry">
            <Array as="points">
              <mxPoint x="1480" y="1000" />
              <mxPoint x="960" y="1000" />
              <mxPoint x="960" y="940" />
            </Array>
          </mxGeometry>
        </mxCell>
        <mxCell id="zFS1pn2A8cmfrVWvFFyQ-75" value="to DM" style="edgeLabel;html=1;align=center;verticalAlign=middle;resizable=0;points=[];" vertex="1" connectable="0" parent="zFS1pn2A8cmfrVWvFFyQ-41">
          <mxGeometry x="-0.9337" y="-2" relative="1" as="geometry">
            <mxPoint as="offset" />
          </mxGeometry>
        </mxCell>
        <mxCell id="zFS1pn2A8cmfrVWvFFyQ-45" style="edgeStyle=orthogonalEdgeStyle;rounded=0;orthogonalLoop=1;jettySize=auto;html=1;entryX=0;entryY=0.5;entryDx=0;entryDy=0;" edge="1" parent="1" source="JqTOLJbfiFGYhZ1s0W8t-16" target="q9rqpO51LhmBKndgSOn--6">
          <mxGeometry relative="1" as="geometry">
            <Array as="points">
              <mxPoint x="940" y="760" />
              <mxPoint x="940" y="680" />
              <mxPoint x="1200" y="680" />
              <mxPoint x="1200" y="670" />
            </Array>
          </mxGeometry>
        </mxCell>
        <mxCell id="zFS1pn2A8cmfrVWvFFyQ-49" style="edgeStyle=orthogonalEdgeStyle;rounded=0;orthogonalLoop=1;jettySize=auto;html=1;entryX=0;entryY=0.5;entryDx=0;entryDy=0;" edge="1" parent="1" source="q9rqpO51LhmBKndgSOn--5" target="laC3dYbV331lfGwgBf-x-6">
          <mxGeometry relative="1" as="geometry" />
        </mxCell>
        <mxCell id="zFS1pn2A8cmfrVWvFFyQ-52" style="edgeStyle=orthogonalEdgeStyle;rounded=0;orthogonalLoop=1;jettySize=auto;html=1;entryX=0;entryY=0.5;entryDx=0;entryDy=0;exitX=0.5;exitY=0;exitDx=0;exitDy=0;" edge="1" parent="1" source="laC3dYbV331lfGwgBf-x-11" target="laC3dYbV331lfGwgBf-x-7">
          <mxGeometry relative="1" as="geometry">
            <Array as="points">
              <mxPoint x="1360" y="755" />
              <mxPoint x="1360" y="700" />
            </Array>
          </mxGeometry>
        </mxCell>
        <mxCell id="zFS1pn2A8cmfrVWvFFyQ-69" value="" style="group" vertex="1" connectable="0" parent="1">
          <mxGeometry x="1240.005" y="646.665" width="20.00499999999988" height="66.67000000000007" as="geometry" />
        </mxCell>
        <mxCell id="q9rqpO51LhmBKndgSOn--5" value="" style="shape=trapezoid;perimeter=trapezoidPerimeter;whiteSpace=wrap;html=1;fixedSize=1;shadow=1;strokeColor=#666666;align=center;verticalAlign=middle;fontFamily=Helvetica;fontSize=18;fontColor=default;fillColor=#f5f5f5;rotation=90;" parent="zFS1pn2A8cmfrVWvFFyQ-69" vertex="1">
          <mxGeometry x="-23.335000000000036" y="23.335000000000036" width="66.67" height="20" as="geometry" />
        </mxCell>
        <mxCell id="q9rqpO51LhmBKndgSOn--6" value="00" style="text;html=1;align=center;verticalAlign=middle;whiteSpace=wrap;rounded=0;" parent="zFS1pn2A8cmfrVWvFFyQ-69" vertex="1">
          <mxGeometry x="0.004999999999881766" y="13.335000000000036" width="20" height="20" as="geometry" />
        </mxCell>
        <mxCell id="zFS1pn2A8cmfrVWvFFyQ-44" value="01" style="text;html=1;align=center;verticalAlign=middle;whiteSpace=wrap;rounded=0;" vertex="1" parent="zFS1pn2A8cmfrVWvFFyQ-69">
          <mxGeometry x="0.004999999999881766" y="33.335000000000036" width="20" height="20" as="geometry" />
        </mxCell>
        <mxCell id="zFS1pn2A8cmfrVWvFFyQ-73" value="" style="group" vertex="1" connectable="0" parent="1">
          <mxGeometry x="980" y="710" width="130" height="250" as="geometry" />
        </mxCell>
        <mxCell id="F4LApp7SRapzV72RJLrX-57" value="" style="group" parent="zFS1pn2A8cmfrVWvFFyQ-73" vertex="1" connectable="0">
          <mxGeometry y="50" width="120" height="200" as="geometry" />
        </mxCell>
        <mxCell id="3a17f1ce550125da-4" value="Data&lt;div&gt;Memory&lt;/div&gt;" style="whiteSpace=wrap;html=1;shadow=1;fontSize=18;fillColor=#f5f5f5;strokeColor=#666666;" parent="F4LApp7SRapzV72RJLrX-57" vertex="1">
          <mxGeometry width="120" height="200" as="geometry" />
        </mxCell>
        <mxCell id="F4LApp7SRapzV72RJLrX-40" value="Address" style="text;html=1;align=center;verticalAlign=middle;whiteSpace=wrap;rounded=0;" parent="F4LApp7SRapzV72RJLrX-57" vertex="1">
          <mxGeometry y="170" width="50" height="20" as="geometry" />
        </mxCell>
        <mxCell id="F4LApp7SRapzV72RJLrX-41" value="WriteData" style="text;html=1;align=center;verticalAlign=middle;whiteSpace=wrap;rounded=0;" parent="F4LApp7SRapzV72RJLrX-57" vertex="1">
          <mxGeometry y="150" width="60" height="20" as="geometry" />
        </mxCell>
        <mxCell id="F4LApp7SRapzV72RJLrX-42" value="MemWrite" style="text;html=1;align=center;verticalAlign=middle;whiteSpace=wrap;rounded=0;" parent="F4LApp7SRapzV72RJLrX-57" vertex="1">
          <mxGeometry width="60" height="20" as="geometry" />
        </mxCell>
        <mxCell id="F4LApp7SRapzV72RJLrX-43" value="MemRead" style="text;html=1;align=center;verticalAlign=middle;whiteSpace=wrap;rounded=0;" parent="F4LApp7SRapzV72RJLrX-57" vertex="1">
          <mxGeometry y="40" width="60" height="20" as="geometry" />
        </mxCell>
        <mxCell id="F4LApp7SRapzV72RJLrX-44" value="D_RD" style="text;html=1;align=center;verticalAlign=middle;whiteSpace=wrap;rounded=0;" parent="F4LApp7SRapzV72RJLrX-57" vertex="1">
          <mxGeometry x="80" y="150" width="40" height="20" as="geometry" />
        </mxCell>
        <mxCell id="zFS1pn2A8cmfrVWvFFyQ-63" value="" style="group" vertex="1" connectable="0" parent="zFS1pn2A8cmfrVWvFFyQ-73">
          <mxGeometry x="70" width="20" height="60" as="geometry" />
        </mxCell>
        <mxCell id="zFS1pn2A8cmfrVWvFFyQ-59" value="" style="triangle;whiteSpace=wrap;html=1;rotation=90;" vertex="1" parent="zFS1pn2A8cmfrVWvFFyQ-63">
          <mxGeometry x="5" y="45" width="10" height="20" as="geometry" />
        </mxCell>
        <mxCell id="zFS1pn2A8cmfrVWvFFyQ-60" value="" style="edgeStyle=none;orthogonalLoop=1;jettySize=auto;html=1;rounded=0;" edge="1" parent="zFS1pn2A8cmfrVWvFFyQ-63">
          <mxGeometry width="100" relative="1" as="geometry">
            <mxPoint x="10" y="-10" as="sourcePoint" />
            <mxPoint x="10" y="50" as="targetPoint" />
            <Array as="points" />
          </mxGeometry>
        </mxCell>
        <mxCell id="zFS1pn2A8cmfrVWvFFyQ-61" value="CLK" style="edgeLabel;html=1;align=center;verticalAlign=middle;resizable=0;points=[];" vertex="1" connectable="0" parent="zFS1pn2A8cmfrVWvFFyQ-60">
          <mxGeometry x="-0.0019" relative="1" as="geometry">
            <mxPoint y="-5" as="offset" />
          </mxGeometry>
        </mxCell>
        <mxCell id="zFS1pn2A8cmfrVWvFFyQ-68" value="" style="group" vertex="1" connectable="0" parent="zFS1pn2A8cmfrVWvFFyQ-73">
          <mxGeometry x="99.95000000000005" width="30.049999999999955" height="50" as="geometry" />
        </mxCell>
        <mxCell id="zFS1pn2A8cmfrVWvFFyQ-66" value="" style="edgeStyle=elbowEdgeStyle;rounded=0;html=1;startArrow=none;startFill=0;jettySize=auto;orthogonalLoop=1;fontSize=18;elbow=vertical;entryX=0.75;entryY=0;entryDx=0;entryDy=0;" edge="1" parent="zFS1pn2A8cmfrVWvFFyQ-68">
          <mxGeometry relative="1" as="geometry">
            <Array as="points">
              <mxPoint y="10" />
            </Array>
            <mxPoint x="0.049999999999954525" y="-10" as="sourcePoint" />
            <mxPoint y="50" as="targetPoint" />
          </mxGeometry>
        </mxCell>
        <mxCell id="zFS1pn2A8cmfrVWvFFyQ-67" value="RST" style="text;html=1;align=center;verticalAlign=middle;resizable=1;points=[];autosize=1;strokeColor=none;fillColor=none;movable=1;rotatable=1;deletable=1;editable=1;locked=0;connectable=1;" vertex="1" parent="zFS1pn2A8cmfrVWvFFyQ-68">
          <mxGeometry y="10" width="30" height="10" as="geometry" />
        </mxCell>
        <mxCell id="zFS1pn2A8cmfrVWvFFyQ-78" style="edgeStyle=orthogonalEdgeStyle;rounded=0;orthogonalLoop=1;jettySize=auto;html=1;entryX=0.5;entryY=0;entryDx=0;entryDy=0;" edge="1" parent="1" source="F4LApp7SRapzV72RJLrX-1" target="F4LApp7SRapzV72RJLrX-6">
          <mxGeometry relative="1" as="geometry" />
        </mxCell>
        <mxCell id="zFS1pn2A8cmfrVWvFFyQ-79" style="edgeStyle=orthogonalEdgeStyle;rounded=0;orthogonalLoop=1;jettySize=auto;html=1;entryX=0;entryY=0.5;entryDx=0;entryDy=0;" edge="1" parent="1" source="-hvyRLRQOOJ3VwnVLbOB-11" target="q9rqpO51LhmBKndgSOn--34">
          <mxGeometry relative="1" as="geometry">
            <Array as="points">
              <mxPoint x="660" y="570" />
              <mxPoint x="660" y="530" />
              <mxPoint x="980" y="530" />
              <mxPoint x="980" y="338" />
            </Array>
          </mxGeometry>
        </mxCell>
        <mxCell id="-hvyRLRQOOJ3VwnVLbOB-44" value="&lt;div&gt;&lt;br&gt;&lt;/div&gt;" style="text;html=1;align=center;verticalAlign=middle;whiteSpace=wrap;rounded=0;fontFamily=Helvetica;fontSize=18;fontColor=default;container=0;" parent="1" vertex="1">
          <mxGeometry x="1600" y="950" width="60" height="30" as="geometry" />
        </mxCell>
        <mxCell id="-hvyRLRQOOJ3VwnVLbOB-43" value="" style="shape=trapezoid;perimeter=trapezoidPerimeter;whiteSpace=wrap;html=1;fixedSize=1;shadow=1;strokeColor=#666666;align=center;verticalAlign=middle;fontFamily=Helvetica;fontSize=18;fontColor=default;fillColor=#f5f5f5;rotation=90;container=0;" parent="1" vertex="1">
          <mxGeometry x="1580" y="900" width="140" height="100" as="geometry" />
        </mxCell>
        <mxCell id="F4LApp7SRapzV72RJLrX-87" value="&lt;span style=&quot;font-size: 18px;&quot;&gt;00&lt;/span&gt;" style="text;html=1;align=left;verticalAlign=middle;whiteSpace=wrap;rounded=0;container=0;" parent="1" vertex="1">
          <mxGeometry x="1600" y="900" width="30" height="30" as="geometry" />
        </mxCell>
        <mxCell id="F4LApp7SRapzV72RJLrX-88" value="&lt;span style=&quot;font-size: 18px;&quot;&gt;01&lt;/span&gt;" style="text;html=1;align=left;verticalAlign=middle;whiteSpace=wrap;rounded=0;container=0;" parent="1" vertex="1">
          <mxGeometry x="1600" y="940" width="35" height="20" as="geometry" />
        </mxCell>
        <mxCell id="F4LApp7SRapzV72RJLrX-89" value="&lt;span style=&quot;font-size: 18px;&quot;&gt;10&lt;/span&gt;" style="text;html=1;align=left;verticalAlign=middle;whiteSpace=wrap;rounded=0;container=0;" parent="1" vertex="1">
          <mxGeometry x="1600" y="970" width="30" height="30" as="geometry" />
        </mxCell>
        <mxCell id="F4LApp7SRapzV72RJLrX-91" value="&lt;font style=&quot;font-size: 10px;&quot;&gt;ALUresult&lt;/font&gt;" style="text;html=1;align=left;verticalAlign=middle;whiteSpace=wrap;rounded=0;container=0;" parent="1" vertex="1">
          <mxGeometry x="1630" y="910" width="50" height="10" as="geometry" />
        </mxCell>
        <mxCell id="F4LApp7SRapzV72RJLrX-92" value="&lt;font style=&quot;font-size: 10px;&quot;&gt;Data Memory&lt;/font&gt;" style="text;html=1;align=left;verticalAlign=middle;whiteSpace=wrap;rounded=0;container=0;" parent="1" vertex="1">
          <mxGeometry x="1630" y="940" width="70" height="20" as="geometry" />
        </mxCell>
        <mxCell id="F4LApp7SRapzV72RJLrX-93" value="&lt;span style=&quot;font-size: 10px;&quot;&gt;PC+4&lt;/span&gt;" style="text;html=1;align=left;verticalAlign=middle;whiteSpace=wrap;rounded=0;container=0;" parent="1" vertex="1">
          <mxGeometry x="1630" y="975" width="70" height="20" as="geometry" />
        </mxCell>
      </root>
    </mxGraphModel>
  </diagram>
</mxfile>
